<svg xmlns="http://www.w3.org/2000/svg" viewBox="0 0 876.02 659.62"><defs><style>.cls-1{opacity:0.2;}.cls-2{fill:#fcee21;}</style></defs><title>paper-blane-back</title><g id="Layer_2" data-name="Layer 2"><g id="Layer_1-2" data-name="Layer 1"><g class="cls-1"><path class="cls-2" d="M393.75,659.62c-1.21,0-3.64,0-4.86-1.21a19.8,19.8,0,0,1-13.36-15.79l-27.93-313.3-40.07,21.86c-6.07,3.64-13.36,2.43-19.43-1.21L7.59,153.24A20.14,20.14,0,0,1,.3,133.81a15.8,15.8,0,0,1,15.79-13.36L855.21.23a18.07,18.07,0,0,1,18.22,8.5,18.39,18.39,0,0,1-1.21,20.64l-463.88,623C405.9,657.2,399.82,659.62,393.75,659.62Zm-12.14-355.8,25.5,289L790.84,76.74ZM67.09,149.6,294.18,309.89,762.91,50Z"/></g></g></g></svg>